<mxfile host="Electron" agent="Mozilla/5.0 (Windows NT 10.0; Win64; x64) AppleWebKit/537.36 (KHTML, like Gecko) draw.io/24.7.17 Chrome/128.0.6613.36 Electron/32.0.1 Safari/537.36" version="24.7.17">
  <diagram name="Страница — 1" id="YSMQW4tKvHTIruasvQNO">
    <mxGraphModel dx="724" dy="494" grid="1" gridSize="10" guides="1" tooltips="1" connect="1" arrows="1" fold="1" page="1" pageScale="1" pageWidth="827" pageHeight="1169" math="0" shadow="0">
      <root>
        <mxCell id="0" />
        <mxCell id="1" parent="0" />
        <mxCell id="barYEJFdWYSISxJVIZfi-20" style="edgeStyle=orthogonalEdgeStyle;rounded=0;orthogonalLoop=1;jettySize=auto;html=1;" parent="1" source="barYEJFdWYSISxJVIZfi-1" target="barYEJFdWYSISxJVIZfi-19" edge="1">
          <mxGeometry relative="1" as="geometry" />
        </mxCell>
        <mxCell id="barYEJFdWYSISxJVIZfi-1" value="Начало" style="ellipse;whiteSpace=wrap;html=1;" parent="1" vertex="1">
          <mxGeometry x="280" y="10" width="70" height="50" as="geometry" />
        </mxCell>
        <mxCell id="barYEJFdWYSISxJVIZfi-4" value="" style="endArrow=none;html=1;rounded=0;" parent="1" edge="1">
          <mxGeometry width="50" height="50" relative="1" as="geometry">
            <mxPoint x="460" y="10" as="sourcePoint" />
            <mxPoint x="567" y="10" as="targetPoint" />
          </mxGeometry>
        </mxCell>
        <mxCell id="barYEJFdWYSISxJVIZfi-5" value="" style="endArrow=none;html=1;rounded=0;" parent="1" edge="1">
          <mxGeometry width="50" height="50" relative="1" as="geometry">
            <mxPoint x="460" y="510" as="sourcePoint" />
            <mxPoint x="460" y="10" as="targetPoint" />
          </mxGeometry>
        </mxCell>
        <mxCell id="barYEJFdWYSISxJVIZfi-7" value="&lt;div&gt;#include &amp;lt;iostream&amp;gt;&lt;/div&gt;&lt;div&gt;#include &amp;lt;clocale&amp;gt;&lt;/div&gt;&lt;div&gt;#include &amp;lt;cmath&amp;gt;&lt;/div&gt;&lt;div&gt;using namespace std;&lt;/div&gt;" style="text;html=1;align=center;verticalAlign=middle;whiteSpace=wrap;rounded=0;" parent="1" vertex="1">
          <mxGeometry x="470" y="10" width="140" height="70" as="geometry" />
        </mxCell>
        <mxCell id="barYEJFdWYSISxJVIZfi-8" value="float f(float x)" style="shape=process;whiteSpace=wrap;html=1;backgroundOutline=1;" parent="1" vertex="1">
          <mxGeometry x="470" y="90" width="106" height="20" as="geometry" />
        </mxCell>
        <mxCell id="barYEJFdWYSISxJVIZfi-16" value="}" style="text;html=1;align=center;verticalAlign=middle;whiteSpace=wrap;rounded=0;" parent="1" vertex="1">
          <mxGeometry x="700" y="140" width="30" height="25" as="geometry" />
        </mxCell>
        <mxCell id="NfwYZ1OnKjQ1SjtDYjIP-7" style="edgeStyle=orthogonalEdgeStyle;rounded=0;orthogonalLoop=1;jettySize=auto;html=1;entryX=0.5;entryY=0;entryDx=0;entryDy=0;" parent="1" source="barYEJFdWYSISxJVIZfi-19" target="NfwYZ1OnKjQ1SjtDYjIP-3" edge="1">
          <mxGeometry relative="1" as="geometry" />
        </mxCell>
        <mxCell id="barYEJFdWYSISxJVIZfi-19" value="int main()" style="shape=process;whiteSpace=wrap;html=1;backgroundOutline=1;" parent="1" vertex="1">
          <mxGeometry x="270" y="100" width="90" height="20" as="geometry" />
        </mxCell>
        <mxCell id="barYEJFdWYSISxJVIZfi-22" value="" style="endArrow=none;dashed=1;html=1;rounded=0;" parent="1" edge="1">
          <mxGeometry width="50" height="50" relative="1" as="geometry">
            <mxPoint x="320" y="80" as="sourcePoint" />
            <mxPoint x="460" y="80" as="targetPoint" />
          </mxGeometry>
        </mxCell>
        <mxCell id="NfwYZ1OnKjQ1SjtDYjIP-9" style="edgeStyle=orthogonalEdgeStyle;rounded=0;orthogonalLoop=1;jettySize=auto;html=1;entryX=0.5;entryY=0;entryDx=0;entryDy=0;" parent="1" source="barYEJFdWYSISxJVIZfi-23" target="barYEJFdWYSISxJVIZfi-25" edge="1">
          <mxGeometry relative="1" as="geometry" />
        </mxCell>
        <mxCell id="barYEJFdWYSISxJVIZfi-23" value="float e = 0.001;" style="rounded=0;whiteSpace=wrap;html=1;" parent="1" vertex="1">
          <mxGeometry x="265" y="190" width="100" height="20" as="geometry" />
        </mxCell>
        <mxCell id="NfwYZ1OnKjQ1SjtDYjIP-10" style="edgeStyle=orthogonalEdgeStyle;rounded=0;orthogonalLoop=1;jettySize=auto;html=1;entryX=0.5;entryY=0;entryDx=0;entryDy=0;" parent="1" source="barYEJFdWYSISxJVIZfi-25" target="NfwYZ1OnKjQ1SjtDYjIP-5" edge="1">
          <mxGeometry relative="1" as="geometry" />
        </mxCell>
        <mxCell id="barYEJFdWYSISxJVIZfi-25" value="setlocale(LC_ALL,&quot;rus&quot;);" style="rounded=0;whiteSpace=wrap;html=1;" parent="1" vertex="1">
          <mxGeometry x="240" y="230" width="150" height="20" as="geometry" />
        </mxCell>
        <mxCell id="NfwYZ1OnKjQ1SjtDYjIP-1" value="return sqrt(1 - 0.4 * pow(x, 2)) - asin(x);" style="rounded=0;whiteSpace=wrap;html=1;" parent="1" vertex="1">
          <mxGeometry x="470" y="140" width="236" height="20" as="geometry" />
        </mxCell>
        <mxCell id="NfwYZ1OnKjQ1SjtDYjIP-8" style="edgeStyle=orthogonalEdgeStyle;rounded=0;orthogonalLoop=1;jettySize=auto;html=1;entryX=0.5;entryY=0;entryDx=0;entryDy=0;" parent="1" source="NfwYZ1OnKjQ1SjtDYjIP-3" target="barYEJFdWYSISxJVIZfi-23" edge="1">
          <mxGeometry relative="1" as="geometry" />
        </mxCell>
        <mxCell id="NfwYZ1OnKjQ1SjtDYjIP-3" value="float a, b;" style="rounded=0;whiteSpace=wrap;html=1;" parent="1" vertex="1">
          <mxGeometry x="275" y="145" width="80" height="20" as="geometry" />
        </mxCell>
        <mxCell id="NfwYZ1OnKjQ1SjtDYjIP-4" value="{" style="text;html=1;align=center;verticalAlign=middle;whiteSpace=wrap;rounded=0;" parent="1" vertex="1">
          <mxGeometry x="270" y="120" width="30" height="20" as="geometry" />
        </mxCell>
        <mxCell id="NfwYZ1OnKjQ1SjtDYjIP-11" style="edgeStyle=orthogonalEdgeStyle;rounded=0;orthogonalLoop=1;jettySize=auto;html=1;" parent="1" source="NfwYZ1OnKjQ1SjtDYjIP-5" target="NfwYZ1OnKjQ1SjtDYjIP-6" edge="1">
          <mxGeometry relative="1" as="geometry" />
        </mxCell>
        <mxCell id="NfwYZ1OnKjQ1SjtDYjIP-5" value="cout &amp;lt;&amp;lt; &quot;Введите значения отрезка [a;b]: &quot;;" style="shape=parallelogram;perimeter=parallelogramPerimeter;whiteSpace=wrap;html=1;fixedSize=1;" parent="1" vertex="1">
          <mxGeometry x="175" y="270" width="280" height="20" as="geometry" />
        </mxCell>
        <mxCell id="SSPWIM7D8s4effEqeD6Z-28" style="edgeStyle=orthogonalEdgeStyle;rounded=0;orthogonalLoop=1;jettySize=auto;html=1;entryX=0.5;entryY=0;entryDx=0;entryDy=0;" edge="1" parent="1" source="NfwYZ1OnKjQ1SjtDYjIP-6" target="SSPWIM7D8s4effEqeD6Z-24">
          <mxGeometry relative="1" as="geometry" />
        </mxCell>
        <mxCell id="NfwYZ1OnKjQ1SjtDYjIP-6" value="cin &amp;gt;&amp;gt; a &amp;gt;&amp;gt; b;" style="shape=parallelogram;perimeter=parallelogramPerimeter;whiteSpace=wrap;html=1;fixedSize=1;" parent="1" vertex="1">
          <mxGeometry x="255" y="310" width="120" height="20" as="geometry" />
        </mxCell>
        <mxCell id="NfwYZ1OnKjQ1SjtDYjIP-35" value="{" style="text;html=1;align=center;verticalAlign=middle;whiteSpace=wrap;rounded=0;" parent="1" vertex="1">
          <mxGeometry x="502" y="210" width="30" height="20" as="geometry" />
        </mxCell>
        <mxCell id="SSPWIM7D8s4effEqeD6Z-11" style="edgeStyle=orthogonalEdgeStyle;rounded=0;orthogonalLoop=1;jettySize=auto;html=1;entryX=0.5;entryY=0;entryDx=0;entryDy=0;" edge="1" parent="1" source="SSPWIM7D8s4effEqeD6Z-1" target="SSPWIM7D8s4effEqeD6Z-4">
          <mxGeometry relative="1" as="geometry" />
        </mxCell>
        <mxCell id="SSPWIM7D8s4effEqeD6Z-1" value="float Half(float a, float b, float e)" style="shape=process;whiteSpace=wrap;html=1;backgroundOutline=1;" vertex="1" parent="1">
          <mxGeometry x="478" y="190" width="220" height="20" as="geometry" />
        </mxCell>
        <mxCell id="SSPWIM7D8s4effEqeD6Z-2" value="&lt;div&gt;float f(float)&lt;/div&gt;" style="text;html=1;align=center;verticalAlign=middle;whiteSpace=wrap;rounded=0;" vertex="1" parent="1">
          <mxGeometry x="470" y="170" width="90" height="20" as="geometry" />
        </mxCell>
        <mxCell id="SSPWIM7D8s4effEqeD6Z-3" style="edgeStyle=orthogonalEdgeStyle;rounded=0;orthogonalLoop=1;jettySize=auto;html=1;entryX=0.223;entryY=0.057;entryDx=0;entryDy=0;entryPerimeter=0;" edge="1" parent="1" source="barYEJFdWYSISxJVIZfi-8" target="NfwYZ1OnKjQ1SjtDYjIP-1">
          <mxGeometry relative="1" as="geometry" />
        </mxCell>
        <mxCell id="SSPWIM7D8s4effEqeD6Z-10" style="edgeStyle=orthogonalEdgeStyle;rounded=0;orthogonalLoop=1;jettySize=auto;html=1;entryX=0.5;entryY=0;entryDx=0;entryDy=0;" edge="1" parent="1" source="SSPWIM7D8s4effEqeD6Z-4" target="SSPWIM7D8s4effEqeD6Z-5">
          <mxGeometry relative="1" as="geometry" />
        </mxCell>
        <mxCell id="SSPWIM7D8s4effEqeD6Z-4" value="float c = (a + b) / 2;" style="rounded=0;whiteSpace=wrap;html=1;" vertex="1" parent="1">
          <mxGeometry x="532" y="230" width="112" height="20" as="geometry" />
        </mxCell>
        <mxCell id="SSPWIM7D8s4effEqeD6Z-14" style="edgeStyle=orthogonalEdgeStyle;rounded=0;orthogonalLoop=1;jettySize=auto;html=1;entryX=0.3;entryY=0;entryDx=0;entryDy=0;entryPerimeter=0;" edge="1" parent="1" source="SSPWIM7D8s4effEqeD6Z-5" target="SSPWIM7D8s4effEqeD6Z-6">
          <mxGeometry relative="1" as="geometry">
            <mxPoint x="490" y="320" as="targetPoint" />
            <Array as="points">
              <mxPoint x="490" y="295" />
            </Array>
          </mxGeometry>
        </mxCell>
        <mxCell id="SSPWIM7D8s4effEqeD6Z-17" style="edgeStyle=orthogonalEdgeStyle;rounded=0;orthogonalLoop=1;jettySize=auto;html=1;entryX=0.503;entryY=-0.068;entryDx=0;entryDy=0;entryPerimeter=0;" edge="1" parent="1" source="SSPWIM7D8s4effEqeD6Z-5" target="SSPWIM7D8s4effEqeD6Z-7">
          <mxGeometry relative="1" as="geometry">
            <mxPoint x="720" y="310" as="targetPoint" />
            <Array as="points">
              <mxPoint x="721" y="295" />
            </Array>
          </mxGeometry>
        </mxCell>
        <mxCell id="SSPWIM7D8s4effEqeD6Z-5" value="if (abs(a - b) &amp;lt;= e)" style="rhombus;whiteSpace=wrap;html=1;" vertex="1" parent="1">
          <mxGeometry x="513" y="270" width="150" height="50" as="geometry" />
        </mxCell>
        <mxCell id="SSPWIM7D8s4effEqeD6Z-32" style="edgeStyle=orthogonalEdgeStyle;rounded=0;orthogonalLoop=1;jettySize=auto;html=1;" edge="1" parent="1" source="SSPWIM7D8s4effEqeD6Z-6">
          <mxGeometry relative="1" as="geometry">
            <mxPoint x="590" y="420" as="targetPoint" />
            <Array as="points">
              <mxPoint x="502" y="420" />
            </Array>
          </mxGeometry>
        </mxCell>
        <mxCell id="SSPWIM7D8s4effEqeD6Z-6" value="return c;" style="rounded=0;whiteSpace=wrap;html=1;" vertex="1" parent="1">
          <mxGeometry x="472" y="330" width="60" height="20" as="geometry" />
        </mxCell>
        <mxCell id="SSPWIM7D8s4effEqeD6Z-20" style="edgeStyle=orthogonalEdgeStyle;rounded=0;orthogonalLoop=1;jettySize=auto;html=1;entryX=0.411;entryY=0;entryDx=0;entryDy=0;entryPerimeter=0;" edge="1" parent="1" source="SSPWIM7D8s4effEqeD6Z-7" target="SSPWIM7D8s4effEqeD6Z-18">
          <mxGeometry relative="1" as="geometry">
            <mxPoint x="610" y="360" as="targetPoint" />
            <Array as="points">
              <mxPoint x="610" y="340" />
            </Array>
          </mxGeometry>
        </mxCell>
        <mxCell id="SSPWIM7D8s4effEqeD6Z-21" style="edgeStyle=orthogonalEdgeStyle;rounded=0;orthogonalLoop=1;jettySize=auto;html=1;entryX=0.606;entryY=-0.113;entryDx=0;entryDy=0;entryPerimeter=0;" edge="1" parent="1" source="SSPWIM7D8s4effEqeD6Z-7" target="SSPWIM7D8s4effEqeD6Z-19">
          <mxGeometry relative="1" as="geometry">
            <mxPoint x="830" y="360" as="targetPoint" />
            <Array as="points">
              <mxPoint x="831" y="340" />
            </Array>
          </mxGeometry>
        </mxCell>
        <mxCell id="SSPWIM7D8s4effEqeD6Z-7" value="if (f(c) * f(b) &amp;lt; 0)" style="rhombus;whiteSpace=wrap;html=1;" vertex="1" parent="1">
          <mxGeometry x="642.5" y="320" width="155" height="40" as="geometry" />
        </mxCell>
        <mxCell id="SSPWIM7D8s4effEqeD6Z-15" value="1" style="text;html=1;align=center;verticalAlign=middle;whiteSpace=wrap;rounded=0;" vertex="1" parent="1">
          <mxGeometry x="492" y="270" width="20" height="20" as="geometry" />
        </mxCell>
        <mxCell id="SSPWIM7D8s4effEqeD6Z-16" value="0" style="text;html=1;align=center;verticalAlign=middle;whiteSpace=wrap;rounded=0;" vertex="1" parent="1">
          <mxGeometry x="663" y="270" width="20" height="20" as="geometry" />
        </mxCell>
        <mxCell id="SSPWIM7D8s4effEqeD6Z-33" style="edgeStyle=orthogonalEdgeStyle;rounded=0;orthogonalLoop=1;jettySize=auto;html=1;" edge="1" parent="1" source="SSPWIM7D8s4effEqeD6Z-18">
          <mxGeometry relative="1" as="geometry">
            <mxPoint x="720" y="400" as="targetPoint" />
            <Array as="points">
              <mxPoint x="618" y="400" />
            </Array>
          </mxGeometry>
        </mxCell>
        <mxCell id="SSPWIM7D8s4effEqeD6Z-18" value="return f(c, b, e);" style="rounded=0;whiteSpace=wrap;html=1;" vertex="1" parent="1">
          <mxGeometry x="573" y="370" width="90" height="20" as="geometry" />
        </mxCell>
        <mxCell id="SSPWIM7D8s4effEqeD6Z-34" style="edgeStyle=orthogonalEdgeStyle;rounded=0;orthogonalLoop=1;jettySize=auto;html=1;" edge="1" parent="1" source="SSPWIM7D8s4effEqeD6Z-19">
          <mxGeometry relative="1" as="geometry">
            <mxPoint x="720" y="400" as="targetPoint" />
            <Array as="points">
              <mxPoint x="820" y="400" />
            </Array>
          </mxGeometry>
        </mxCell>
        <mxCell id="SSPWIM7D8s4effEqeD6Z-19" value="return f(a, c, e);" style="whiteSpace=wrap;html=1;" vertex="1" parent="1">
          <mxGeometry x="770" y="370" width="100" height="20" as="geometry" />
        </mxCell>
        <mxCell id="SSPWIM7D8s4effEqeD6Z-22" value="0" style="text;html=1;align=center;verticalAlign=middle;whiteSpace=wrap;rounded=0;" vertex="1" parent="1">
          <mxGeometry x="797.5" y="320" width="20" height="20" as="geometry" />
        </mxCell>
        <mxCell id="SSPWIM7D8s4effEqeD6Z-23" value="1" style="text;html=1;align=center;verticalAlign=middle;whiteSpace=wrap;rounded=0;" vertex="1" parent="1">
          <mxGeometry x="624" y="320" width="20" height="20" as="geometry" />
        </mxCell>
        <mxCell id="SSPWIM7D8s4effEqeD6Z-29" style="edgeStyle=orthogonalEdgeStyle;rounded=0;orthogonalLoop=1;jettySize=auto;html=1;entryX=0.5;entryY=0;entryDx=0;entryDy=0;" edge="1" parent="1" source="SSPWIM7D8s4effEqeD6Z-24" target="SSPWIM7D8s4effEqeD6Z-26">
          <mxGeometry relative="1" as="geometry" />
        </mxCell>
        <mxCell id="SSPWIM7D8s4effEqeD6Z-24" value="cout &amp;lt;&amp;lt; Half(a, b, e);" style="shape=parallelogram;perimeter=parallelogramPerimeter;whiteSpace=wrap;html=1;fixedSize=1;" vertex="1" parent="1">
          <mxGeometry x="235" y="350" width="160" height="20" as="geometry" />
        </mxCell>
        <mxCell id="SSPWIM7D8s4effEqeD6Z-26" value="return 0;" style="ellipse;whiteSpace=wrap;html=1;" vertex="1" parent="1">
          <mxGeometry x="275" y="390" width="80" height="40" as="geometry" />
        </mxCell>
        <mxCell id="SSPWIM7D8s4effEqeD6Z-30" value="}" style="text;html=1;align=center;verticalAlign=middle;whiteSpace=wrap;rounded=0;" vertex="1" parent="1">
          <mxGeometry x="355" y="397.5" width="30" height="25" as="geometry" />
        </mxCell>
        <mxCell id="SSPWIM7D8s4effEqeD6Z-31" value="{" style="text;html=1;align=center;verticalAlign=middle;whiteSpace=wrap;rounded=0;" vertex="1" parent="1">
          <mxGeometry x="472" y="110" width="30" height="20" as="geometry" />
        </mxCell>
        <mxCell id="SSPWIM7D8s4effEqeD6Z-35" value="" style="endArrow=classic;html=1;rounded=0;" edge="1" parent="1">
          <mxGeometry width="50" height="50" relative="1" as="geometry">
            <mxPoint x="720" y="400" as="sourcePoint" />
            <mxPoint x="590" y="420" as="targetPoint" />
            <Array as="points">
              <mxPoint x="720" y="420" />
            </Array>
          </mxGeometry>
        </mxCell>
        <mxCell id="SSPWIM7D8s4effEqeD6Z-36" value="" style="endArrow=classic;html=1;rounded=0;" edge="1" parent="1">
          <mxGeometry width="50" height="50" relative="1" as="geometry">
            <mxPoint x="590" y="420" as="sourcePoint" />
            <mxPoint x="590" y="460" as="targetPoint" />
          </mxGeometry>
        </mxCell>
        <mxCell id="SSPWIM7D8s4effEqeD6Z-37" value="return 0;" style="ellipse;whiteSpace=wrap;html=1;" vertex="1" parent="1">
          <mxGeometry x="553" y="460" width="80" height="40" as="geometry" />
        </mxCell>
        <mxCell id="SSPWIM7D8s4effEqeD6Z-38" value="}" style="text;html=1;align=center;verticalAlign=middle;whiteSpace=wrap;rounded=0;" vertex="1" parent="1">
          <mxGeometry x="642.5" y="467.5" width="30" height="25" as="geometry" />
        </mxCell>
        <mxCell id="SSPWIM7D8s4effEqeD6Z-39" value="}" style="text;html=1;align=center;verticalAlign=middle;whiteSpace=wrap;rounded=0;" vertex="1" parent="1">
          <mxGeometry x="603" y="430" width="30" height="25" as="geometry" />
        </mxCell>
        <mxCell id="SSPWIM7D8s4effEqeD6Z-40" value="" style="endArrow=none;dashed=1;html=1;dashPattern=1 3;strokeWidth=2;rounded=0;" edge="1" parent="1">
          <mxGeometry width="50" height="50" relative="1" as="geometry">
            <mxPoint x="600" y="450" as="sourcePoint" />
            <mxPoint x="600" y="430" as="targetPoint" />
          </mxGeometry>
        </mxCell>
        <mxCell id="SSPWIM7D8s4effEqeD6Z-41" value="" style="endArrow=none;html=1;rounded=0;" edge="1" parent="1">
          <mxGeometry width="50" height="50" relative="1" as="geometry">
            <mxPoint x="460" y="510" as="sourcePoint" />
            <mxPoint x="683" y="510" as="targetPoint" />
          </mxGeometry>
        </mxCell>
      </root>
    </mxGraphModel>
  </diagram>
</mxfile>
